<mxfile host="app.diagrams.net" agent="Mozilla/5.0 (Windows NT 10.0; Win64; x64; rv:144.0) Gecko/20100101 Firefox/144.0" version="28.2.7">
  <diagram name="Page-1" id="N9Bf09AZ6GOU6HWceVjP">
    <mxGraphModel dx="1056" dy="587" grid="1" gridSize="10" guides="1" tooltips="1" connect="1" arrows="1" fold="1" page="1" pageScale="1" pageWidth="1169" pageHeight="827" math="0" shadow="0">
      <root>
        <mxCell id="0" />
        <mxCell id="1" parent="0" />
        <mxCell id="GuWbCOmfRAqlzcVIsozZ-3" style="edgeStyle=none;curved=1;rounded=0;orthogonalLoop=1;jettySize=auto;html=1;entryX=0.5;entryY=0;entryDx=0;entryDy=0;fontSize=12;startSize=8;endSize=8;" edge="1" parent="1" source="GuWbCOmfRAqlzcVIsozZ-1" target="GuWbCOmfRAqlzcVIsozZ-2">
          <mxGeometry relative="1" as="geometry" />
        </mxCell>
        <mxCell id="GuWbCOmfRAqlzcVIsozZ-1" value="" style="ellipse;fillColor=strokeColor;html=1;" vertex="1" parent="1">
          <mxGeometry x="120" y="20" width="40" height="40" as="geometry" />
        </mxCell>
        <mxCell id="GuWbCOmfRAqlzcVIsozZ-6" style="edgeStyle=none;curved=1;rounded=0;orthogonalLoop=1;jettySize=auto;html=1;entryX=0.5;entryY=0;entryDx=0;entryDy=0;fontSize=12;startSize=8;endSize=8;" edge="1" parent="1" source="GuWbCOmfRAqlzcVIsozZ-2" target="GuWbCOmfRAqlzcVIsozZ-4">
          <mxGeometry relative="1" as="geometry" />
        </mxCell>
        <mxCell id="GuWbCOmfRAqlzcVIsozZ-2" value="&lt;div style=&quot;line-height: 0%;&quot;&gt;&lt;div align=&quot;justify&quot;&gt;&lt;br&gt;&lt;div&gt;y_start, y_end, n&lt;/div&gt;&lt;br&gt;&lt;br&gt;&lt;/div&gt;&lt;/div&gt;" style="rounded=1;whiteSpace=wrap;html=1;" vertex="1" parent="1">
          <mxGeometry x="80" y="80" width="120" height="40" as="geometry" />
        </mxCell>
        <mxCell id="GuWbCOmfRAqlzcVIsozZ-7" style="edgeStyle=none;curved=1;rounded=0;orthogonalLoop=1;jettySize=auto;html=1;entryX=0.5;entryY=0;entryDx=0;entryDy=0;fontSize=12;startSize=8;endSize=8;" edge="1" parent="1" source="GuWbCOmfRAqlzcVIsozZ-4" target="GuWbCOmfRAqlzcVIsozZ-5">
          <mxGeometry relative="1" as="geometry" />
        </mxCell>
        <mxCell id="GuWbCOmfRAqlzcVIsozZ-4" value="&#xa;dy = (y_end - y_start) / n&#xa;&#xa;" style="rounded=1;whiteSpace=wrap;html=1;" vertex="1" parent="1">
          <mxGeometry x="60" y="140" width="160" height="40" as="geometry" />
        </mxCell>
        <mxCell id="GuWbCOmfRAqlzcVIsozZ-9" style="edgeStyle=none;curved=1;rounded=0;orthogonalLoop=1;jettySize=auto;html=1;entryX=0.5;entryY=0;entryDx=0;entryDy=0;fontSize=12;startSize=8;endSize=8;" edge="1" parent="1" source="GuWbCOmfRAqlzcVIsozZ-5" target="GuWbCOmfRAqlzcVIsozZ-8">
          <mxGeometry relative="1" as="geometry" />
        </mxCell>
        <mxCell id="GuWbCOmfRAqlzcVIsozZ-5" value="&#xa;y = y_start&#xa;&#xa;" style="rounded=1;whiteSpace=wrap;html=1;" vertex="1" parent="1">
          <mxGeometry x="80" y="200" width="120" height="40" as="geometry" />
        </mxCell>
        <mxCell id="GuWbCOmfRAqlzcVIsozZ-11" style="edgeStyle=none;curved=1;rounded=0;orthogonalLoop=1;jettySize=auto;html=1;entryX=0.5;entryY=0;entryDx=0;entryDy=0;fontSize=12;startSize=8;endSize=8;" edge="1" parent="1" source="GuWbCOmfRAqlzcVIsozZ-8" target="GuWbCOmfRAqlzcVIsozZ-10">
          <mxGeometry relative="1" as="geometry" />
        </mxCell>
        <mxCell id="GuWbCOmfRAqlzcVIsozZ-8" value="" style="rhombus;whiteSpace=wrap;html=1;" vertex="1" parent="1">
          <mxGeometry x="120" y="260" width="40" height="40" as="geometry" />
        </mxCell>
        <mxCell id="GuWbCOmfRAqlzcVIsozZ-13" style="edgeStyle=none;curved=1;rounded=0;orthogonalLoop=1;jettySize=auto;html=1;entryX=0.5;entryY=0;entryDx=0;entryDy=0;fontSize=12;startSize=8;endSize=8;" edge="1" parent="1" source="GuWbCOmfRAqlzcVIsozZ-10" target="GuWbCOmfRAqlzcVIsozZ-12">
          <mxGeometry relative="1" as="geometry" />
        </mxCell>
        <mxCell id="GuWbCOmfRAqlzcVIsozZ-10" value="" style="rhombus;whiteSpace=wrap;html=1;" vertex="1" parent="1">
          <mxGeometry x="120" y="320" width="40" height="40" as="geometry" />
        </mxCell>
        <mxCell id="GuWbCOmfRAqlzcVIsozZ-12" value="" style="ellipse;html=1;shape=endState;fillColor=strokeColor;" vertex="1" parent="1">
          <mxGeometry x="120" y="380" width="40" height="40" as="geometry" />
        </mxCell>
        <mxCell id="GuWbCOmfRAqlzcVIsozZ-21" style="edgeStyle=none;curved=1;rounded=0;orthogonalLoop=1;jettySize=auto;html=1;entryX=0.5;entryY=0;entryDx=0;entryDy=0;fontSize=12;startSize=8;endSize=8;" edge="1" parent="1" source="GuWbCOmfRAqlzcVIsozZ-14" target="GuWbCOmfRAqlzcVIsozZ-20">
          <mxGeometry relative="1" as="geometry" />
        </mxCell>
        <mxCell id="GuWbCOmfRAqlzcVIsozZ-14" value="&#xa;F(y) = f(1 + y * y) + pow(f(1) + pow(f(y * y), 2), 2)&#xa;&#xa;" style="rounded=1;whiteSpace=wrap;html=1;" vertex="1" parent="1">
          <mxGeometry x="200" y="380" width="280" height="40" as="geometry" />
        </mxCell>
        <mxCell id="GuWbCOmfRAqlzcVIsozZ-17" value="" style="endArrow=classic;html=1;rounded=0;fontSize=12;startSize=8;endSize=8;curved=1;entryX=0.5;entryY=0;entryDx=0;entryDy=0;" edge="1" parent="1" target="GuWbCOmfRAqlzcVIsozZ-14">
          <mxGeometry width="50" height="50" relative="1" as="geometry">
            <mxPoint x="340" y="340" as="sourcePoint" />
            <mxPoint x="320" y="400" as="targetPoint" />
            <Array as="points">
              <mxPoint x="340" y="350" />
            </Array>
          </mxGeometry>
        </mxCell>
        <mxCell id="GuWbCOmfRAqlzcVIsozZ-18" value="" style="endArrow=none;html=1;rounded=0;fontSize=12;startSize=8;endSize=8;curved=1;exitX=1;exitY=0.5;exitDx=0;exitDy=0;" edge="1" parent="1" source="GuWbCOmfRAqlzcVIsozZ-10">
          <mxGeometry width="50" height="50" relative="1" as="geometry">
            <mxPoint x="270" y="450" as="sourcePoint" />
            <mxPoint x="340" y="340" as="targetPoint" />
          </mxGeometry>
        </mxCell>
        <mxCell id="GuWbCOmfRAqlzcVIsozZ-19" value="&lt;font style=&quot;font-size: 12px;&quot;&gt;y &amp;lt;= y_end&lt;/font&gt;" style="text;html=1;whiteSpace=wrap;strokeColor=none;fillColor=none;align=center;verticalAlign=middle;rounded=0;fontSize=16;" vertex="1" parent="1">
          <mxGeometry x="180" y="310" width="100" height="30" as="geometry" />
        </mxCell>
        <mxCell id="GuWbCOmfRAqlzcVIsozZ-23" style="edgeStyle=none;curved=1;rounded=0;orthogonalLoop=1;jettySize=auto;html=1;entryX=0.5;entryY=0;entryDx=0;entryDy=0;fontSize=12;startSize=8;endSize=8;" edge="1" parent="1" source="GuWbCOmfRAqlzcVIsozZ-20" target="GuWbCOmfRAqlzcVIsozZ-22">
          <mxGeometry relative="1" as="geometry" />
        </mxCell>
        <mxCell id="GuWbCOmfRAqlzcVIsozZ-20" value="вивід y, F(y)" style="rounded=1;whiteSpace=wrap;html=1;" vertex="1" parent="1">
          <mxGeometry x="280" y="440" width="120" height="40" as="geometry" />
        </mxCell>
        <mxCell id="GuWbCOmfRAqlzcVIsozZ-22" value="y += dy" style="rounded=0;whiteSpace=wrap;html=1;" vertex="1" parent="1">
          <mxGeometry x="280" y="500" width="120" height="40" as="geometry" />
        </mxCell>
        <mxCell id="GuWbCOmfRAqlzcVIsozZ-26" value="" style="edgeStyle=none;orthogonalLoop=1;jettySize=auto;html=1;rounded=0;fontSize=12;startSize=8;endSize=8;curved=1;entryX=1;entryY=0.5;entryDx=0;entryDy=0;" edge="1" parent="1" target="GuWbCOmfRAqlzcVIsozZ-8">
          <mxGeometry width="140" relative="1" as="geometry">
            <mxPoint x="520" y="280" as="sourcePoint" />
            <mxPoint x="480" y="260" as="targetPoint" />
            <Array as="points" />
          </mxGeometry>
        </mxCell>
        <mxCell id="GuWbCOmfRAqlzcVIsozZ-27" value="" style="endArrow=none;html=1;rounded=0;fontSize=12;startSize=8;endSize=8;curved=1;exitX=0.5;exitY=1;exitDx=0;exitDy=0;" edge="1" parent="1" source="GuWbCOmfRAqlzcVIsozZ-22">
          <mxGeometry width="50" height="50" relative="1" as="geometry">
            <mxPoint x="310" y="480" as="sourcePoint" />
            <mxPoint x="340" y="560" as="targetPoint" />
          </mxGeometry>
        </mxCell>
        <mxCell id="GuWbCOmfRAqlzcVIsozZ-28" value="" style="endArrow=none;html=1;rounded=0;fontSize=12;startSize=8;endSize=8;curved=1;" edge="1" parent="1">
          <mxGeometry width="50" height="50" relative="1" as="geometry">
            <mxPoint x="340" y="560" as="sourcePoint" />
            <mxPoint x="520" y="560" as="targetPoint" />
          </mxGeometry>
        </mxCell>
        <mxCell id="GuWbCOmfRAqlzcVIsozZ-29" value="" style="endArrow=none;html=1;rounded=0;fontSize=12;startSize=8;endSize=8;curved=1;" edge="1" parent="1">
          <mxGeometry width="50" height="50" relative="1" as="geometry">
            <mxPoint x="520" y="560" as="sourcePoint" />
            <mxPoint x="520" y="280" as="targetPoint" />
          </mxGeometry>
        </mxCell>
        <mxCell id="GuWbCOmfRAqlzcVIsozZ-32" style="edgeStyle=none;curved=1;rounded=0;orthogonalLoop=1;jettySize=auto;html=1;entryX=0.5;entryY=0;entryDx=0;entryDy=0;fontSize=12;startSize=8;endSize=8;" edge="1" parent="1" source="GuWbCOmfRAqlzcVIsozZ-30" target="GuWbCOmfRAqlzcVIsozZ-31">
          <mxGeometry relative="1" as="geometry" />
        </mxCell>
        <mxCell id="GuWbCOmfRAqlzcVIsozZ-30" value="" style="ellipse;fillColor=strokeColor;html=1;" vertex="1" parent="1">
          <mxGeometry x="880" y="20" width="40" height="40" as="geometry" />
        </mxCell>
        <mxCell id="GuWbCOmfRAqlzcVIsozZ-34" style="edgeStyle=none;curved=1;rounded=0;orthogonalLoop=1;jettySize=auto;html=1;entryX=0.5;entryY=0;entryDx=0;entryDy=0;fontSize=12;startSize=8;endSize=8;" edge="1" parent="1" source="GuWbCOmfRAqlzcVIsozZ-31" target="GuWbCOmfRAqlzcVIsozZ-33">
          <mxGeometry relative="1" as="geometry" />
        </mxCell>
        <mxCell id="GuWbCOmfRAqlzcVIsozZ-31" value="" style="rhombus;whiteSpace=wrap;html=1;" vertex="1" parent="1">
          <mxGeometry x="880" y="80" width="40" height="40" as="geometry" />
        </mxCell>
        <mxCell id="GuWbCOmfRAqlzcVIsozZ-45" style="edgeStyle=none;curved=1;rounded=0;orthogonalLoop=1;jettySize=auto;html=1;entryX=0.5;entryY=0;entryDx=0;entryDy=0;fontSize=12;startSize=8;endSize=8;" edge="1" parent="1" source="GuWbCOmfRAqlzcVIsozZ-33" target="GuWbCOmfRAqlzcVIsozZ-40">
          <mxGeometry relative="1" as="geometry" />
        </mxCell>
        <mxCell id="GuWbCOmfRAqlzcVIsozZ-33" value="S = 1" style="rounded=1;whiteSpace=wrap;html=1;" vertex="1" parent="1">
          <mxGeometry x="860" y="140" width="80" height="40" as="geometry" />
        </mxCell>
        <mxCell id="GuWbCOmfRAqlzcVIsozZ-36" value="" style="endArrow=none;html=1;rounded=0;fontSize=12;startSize=8;endSize=8;curved=1;exitX=1;exitY=0.5;exitDx=0;exitDy=0;" edge="1" parent="1" source="GuWbCOmfRAqlzcVIsozZ-31">
          <mxGeometry width="50" height="50" relative="1" as="geometry">
            <mxPoint x="880" y="290" as="sourcePoint" />
            <mxPoint x="1080" y="100" as="targetPoint" />
          </mxGeometry>
        </mxCell>
        <mxCell id="GuWbCOmfRAqlzcVIsozZ-37" value="" style="endArrow=classic;html=1;rounded=0;fontSize=12;startSize=8;endSize=8;curved=1;" edge="1" parent="1">
          <mxGeometry width="50" height="50" relative="1" as="geometry">
            <mxPoint x="1080" y="100" as="sourcePoint" />
            <mxPoint x="1080" y="140" as="targetPoint" />
          </mxGeometry>
        </mxCell>
        <mxCell id="GuWbCOmfRAqlzcVIsozZ-38" value="&#xa;cos(x / 2) / (1 + sin(x) * sin(x))&#xa;&#xa;" style="rounded=1;whiteSpace=wrap;html=1;" vertex="1" parent="1">
          <mxGeometry x="989" y="140" width="180" height="40" as="geometry" />
        </mxCell>
        <mxCell id="GuWbCOmfRAqlzcVIsozZ-39" value="&lt;font style=&quot;font-size: 12px;&quot;&gt;abs (x) &amp;gt;= 1&lt;/font&gt;" style="text;html=1;whiteSpace=wrap;strokeColor=none;fillColor=none;align=center;verticalAlign=middle;rounded=0;fontSize=16;" vertex="1" parent="1">
          <mxGeometry x="930" y="70" width="80" height="30" as="geometry" />
        </mxCell>
        <mxCell id="GuWbCOmfRAqlzcVIsozZ-46" style="edgeStyle=none;curved=1;rounded=0;orthogonalLoop=1;jettySize=auto;html=1;entryX=0.5;entryY=0;entryDx=0;entryDy=0;fontSize=12;startSize=8;endSize=8;" edge="1" parent="1" source="GuWbCOmfRAqlzcVIsozZ-40" target="GuWbCOmfRAqlzcVIsozZ-41">
          <mxGeometry relative="1" as="geometry" />
        </mxCell>
        <mxCell id="GuWbCOmfRAqlzcVIsozZ-40" value="a = 1" style="rounded=1;whiteSpace=wrap;html=1;" vertex="1" parent="1">
          <mxGeometry x="860" y="200" width="80" height="40" as="geometry" />
        </mxCell>
        <mxCell id="GuWbCOmfRAqlzcVIsozZ-48" style="edgeStyle=none;curved=1;rounded=0;orthogonalLoop=1;jettySize=auto;html=1;entryX=0.5;entryY=0;entryDx=0;entryDy=0;fontSize=12;startSize=8;endSize=8;" edge="1" parent="1" source="GuWbCOmfRAqlzcVIsozZ-41" target="GuWbCOmfRAqlzcVIsozZ-47">
          <mxGeometry relative="1" as="geometry" />
        </mxCell>
        <mxCell id="GuWbCOmfRAqlzcVIsozZ-41" value="i = 1" style="rounded=1;whiteSpace=wrap;html=1;" vertex="1" parent="1">
          <mxGeometry x="860" y="260" width="80" height="40" as="geometry" />
        </mxCell>
        <mxCell id="GuWbCOmfRAqlzcVIsozZ-50" style="edgeStyle=none;curved=1;rounded=0;orthogonalLoop=1;jettySize=auto;html=1;entryX=0.5;entryY=0;entryDx=0;entryDy=0;fontSize=12;startSize=8;endSize=8;" edge="1" parent="1" source="GuWbCOmfRAqlzcVIsozZ-47" target="GuWbCOmfRAqlzcVIsozZ-49">
          <mxGeometry relative="1" as="geometry" />
        </mxCell>
        <mxCell id="GuWbCOmfRAqlzcVIsozZ-47" value="" style="rhombus;whiteSpace=wrap;html=1;" vertex="1" parent="1">
          <mxGeometry x="880" y="320" width="40" height="40" as="geometry" />
        </mxCell>
        <mxCell id="GuWbCOmfRAqlzcVIsozZ-52" style="edgeStyle=none;curved=1;rounded=0;orthogonalLoop=1;jettySize=auto;html=1;entryX=0.5;entryY=0;entryDx=0;entryDy=0;fontSize=12;startSize=8;endSize=8;" edge="1" parent="1" source="GuWbCOmfRAqlzcVIsozZ-49" target="GuWbCOmfRAqlzcVIsozZ-51">
          <mxGeometry relative="1" as="geometry" />
        </mxCell>
        <mxCell id="GuWbCOmfRAqlzcVIsozZ-49" value="i++" style="rounded=1;whiteSpace=wrap;html=1;" vertex="1" parent="1">
          <mxGeometry x="860" y="380" width="80" height="40" as="geometry" />
        </mxCell>
        <mxCell id="GuWbCOmfRAqlzcVIsozZ-55" style="edgeStyle=none;curved=1;rounded=0;orthogonalLoop=1;jettySize=auto;html=1;entryX=0.5;entryY=0;entryDx=0;entryDy=0;fontSize=12;startSize=8;endSize=8;" edge="1" parent="1" source="GuWbCOmfRAqlzcVIsozZ-51" target="GuWbCOmfRAqlzcVIsozZ-54">
          <mxGeometry relative="1" as="geometry" />
        </mxCell>
        <mxCell id="GuWbCOmfRAqlzcVIsozZ-51" value="&#xa;a *= x * x * x / (2 * i * (2 * i - 1) * (2 * i - 2))&#xa;&#xa;" style="rounded=1;whiteSpace=wrap;html=1;" vertex="1" parent="1">
          <mxGeometry x="780" y="440" width="240" height="40" as="geometry" />
        </mxCell>
        <mxCell id="GuWbCOmfRAqlzcVIsozZ-57" style="edgeStyle=none;curved=1;rounded=0;orthogonalLoop=1;jettySize=auto;html=1;entryX=0.5;entryY=0;entryDx=0;entryDy=0;fontSize=12;startSize=8;endSize=8;" edge="1" parent="1" source="GuWbCOmfRAqlzcVIsozZ-54" target="GuWbCOmfRAqlzcVIsozZ-56">
          <mxGeometry relative="1" as="geometry" />
        </mxCell>
        <mxCell id="GuWbCOmfRAqlzcVIsozZ-54" value="S += a" style="rounded=1;whiteSpace=wrap;html=1;" vertex="1" parent="1">
          <mxGeometry x="860" y="500" width="80" height="40" as="geometry" />
        </mxCell>
        <mxCell id="GuWbCOmfRAqlzcVIsozZ-59" style="edgeStyle=none;curved=1;rounded=0;orthogonalLoop=1;jettySize=auto;html=1;entryX=0.5;entryY=0;entryDx=0;entryDy=0;fontSize=12;startSize=8;endSize=8;" edge="1" parent="1" source="GuWbCOmfRAqlzcVIsozZ-56" target="GuWbCOmfRAqlzcVIsozZ-58">
          <mxGeometry relative="1" as="geometry" />
        </mxCell>
        <mxCell id="GuWbCOmfRAqlzcVIsozZ-56" value="" style="rhombus;whiteSpace=wrap;html=1;" vertex="1" parent="1">
          <mxGeometry x="880" y="560" width="40" height="40" as="geometry" />
        </mxCell>
        <mxCell id="GuWbCOmfRAqlzcVIsozZ-62" style="edgeStyle=none;curved=1;rounded=0;orthogonalLoop=1;jettySize=auto;html=1;entryX=0.5;entryY=0;entryDx=0;entryDy=0;fontSize=12;startSize=8;endSize=8;" edge="1" parent="1" source="GuWbCOmfRAqlzcVIsozZ-58" target="GuWbCOmfRAqlzcVIsozZ-61">
          <mxGeometry relative="1" as="geometry" />
        </mxCell>
        <mxCell id="GuWbCOmfRAqlzcVIsozZ-58" value="return S" style="rounded=1;whiteSpace=wrap;html=1;" vertex="1" parent="1">
          <mxGeometry x="860" y="620" width="80" height="40" as="geometry" />
        </mxCell>
        <mxCell id="GuWbCOmfRAqlzcVIsozZ-60" value="" style="endArrow=none;html=1;rounded=0;fontSize=12;startSize=8;endSize=8;curved=1;exitX=1;exitY=0.5;exitDx=0;exitDy=0;" edge="1" parent="1" source="GuWbCOmfRAqlzcVIsozZ-56">
          <mxGeometry width="50" height="50" relative="1" as="geometry">
            <mxPoint x="1000" y="660" as="sourcePoint" />
            <mxPoint x="1060" y="580" as="targetPoint" />
          </mxGeometry>
        </mxCell>
        <mxCell id="GuWbCOmfRAqlzcVIsozZ-61" value="" style="ellipse;html=1;shape=endState;fillColor=strokeColor;" vertex="1" parent="1">
          <mxGeometry x="880" y="680" width="40" height="40" as="geometry" />
        </mxCell>
        <mxCell id="GuWbCOmfRAqlzcVIsozZ-63" value="" style="endArrow=none;html=1;rounded=0;fontSize=12;startSize=8;endSize=8;curved=1;" edge="1" parent="1">
          <mxGeometry width="50" height="50" relative="1" as="geometry">
            <mxPoint x="1060" y="580" as="sourcePoint" />
            <mxPoint x="1060" y="340" as="targetPoint" />
          </mxGeometry>
        </mxCell>
        <mxCell id="GuWbCOmfRAqlzcVIsozZ-64" value="" style="endArrow=classic;html=1;rounded=0;fontSize=12;startSize=8;endSize=8;curved=1;entryX=1;entryY=0.5;entryDx=0;entryDy=0;" edge="1" parent="1" target="GuWbCOmfRAqlzcVIsozZ-47">
          <mxGeometry width="50" height="50" relative="1" as="geometry">
            <mxPoint x="1060" y="340" as="sourcePoint" />
            <mxPoint x="1050" y="440" as="targetPoint" />
          </mxGeometry>
        </mxCell>
        <mxCell id="GuWbCOmfRAqlzcVIsozZ-65" value="&lt;font style=&quot;font-size: 12px;&quot;&gt;i &amp;lt;= 6&lt;/font&gt;" style="text;html=1;whiteSpace=wrap;strokeColor=none;fillColor=none;align=center;verticalAlign=middle;rounded=0;fontSize=16;" vertex="1" parent="1">
          <mxGeometry x="950" y="550" width="60" height="30" as="geometry" />
        </mxCell>
      </root>
    </mxGraphModel>
  </diagram>
</mxfile>
